<?xml version="1.0" standalone="no"?><!DOCTYPE svg PUBLIC "-//W3C//DTD SVG 1.1//EN" "http://www.w3.org/Graphics/SVG/1.1/DTD/svg11.dtd"><svg t="1702878984695" class="icon" viewBox="0 0 1024 1024" version="1.1" xmlns="http://www.w3.org/2000/svg" p-id="8844" xmlns:xlink="http://www.w3.org/1999/xlink" width="200" height="200"><path d="M981.333333 533.333333a21.333333 21.333333 0 0 1-21.333333 21.333334H106.666667a21.333333 21.333333 0 0 1 0-42.666667h853.333333a21.333333 21.333333 0 0 1 21.333333 21.333333z m-341.333333 341.333334a106.666667 106.666667 0 1 1-106.666667-106.666667 106.666667 106.666667 0 0 1 106.666667 106.666667z m-42.666667 0a64 64 0 1 0-64 64 64.073333 64.073333 0 0 0 64-64zM426.666667 192a106.666667 106.666667 0 1 1 106.666666 106.666667 106.666667 106.666667 0 0 1-106.666666-106.666667z m42.666666 0a64 64 0 1 0 64-64 64.073333 64.073333 0 0 0-64 64z" fill="#1296db" p-id="8845"></path></svg>