<?xml version="1.0" standalone="no"?><!DOCTYPE svg PUBLIC "-//W3C//DTD SVG 1.1//EN" "http://www.w3.org/Graphics/SVG/1.1/DTD/svg11.dtd"><svg t="1702879032134" class="icon" viewBox="0 0 1024 1024" version="1.1" xmlns="http://www.w3.org/2000/svg" p-id="17246" xmlns:xlink="http://www.w3.org/1999/xlink" width="200" height="200"><path d="M852.550459 515.757798c0 220.601541-178.82422 399.425761-399.416367 399.425762-220.582752 0-399.406972-178.82422-399.406973-399.416367 0-220.592147 178.82422-399.416367 399.406973-399.416367 220.592147 0 399.416367 178.82422 399.416367 399.416367" fill="#F5F0FF" p-id="17247"></path><path d="M577.066275 978.060917h-223.401101c-73.784367 0-133.589725-59.814752-133.589724-133.589724V397.650202c0-73.774972 59.805358-133.58033 133.589724-133.58033h223.401101" fill="#FFD500" p-id="17248"></path><path d="M577.066275 264.079266h223.410496c73.774972 0 133.589725 59.795963 133.589724 133.570936V844.471193c0 73.774972-59.814752 133.589725-133.589724 133.589724h-223.401101v-713.981651z" fill="#0091F1" p-id="17249"></path><path d="M882.575266 844.471193V397.650202c0-73.774972-59.805358-133.58033-133.589725-133.58033h-171.919266v713.981651h171.919266c73.784367 0 133.589725-59.805358 133.589725-133.58033" fill="#00B1FF" p-id="17250"></path><path d="M514.461358 751.165064a32.598899 32.598899 0 0 1-32.598899 32.598899H315.279266a32.598899 32.598899 0 1 1 0-65.197798h166.564404a32.598899 32.598899 0 0 1 32.598899 32.598899" fill="#FFFFFF" p-id="17251"></path><path d="M398.570862 635.274569a32.598899 32.598899 0 0 1 32.598899 32.598899v166.573798a32.598899 32.598899 0 1 1-65.197798 0v-166.564404a32.598899 32.598899 0 0 1 32.598899-32.598899M837.509872 384.629431a32.598899 32.598899 0 0 1 0 46.098789L719.712294 548.516404a32.598899 32.598899 0 0 1-46.098789-46.098789l117.788183-117.788184a32.598899 32.598899 0 0 1 46.098789 0" fill="#FFFFFF" p-id="17252"></path><path d="M673.622899 384.629431a32.598899 32.598899 0 0 1 46.098789 0L837.509872 502.417615a32.598899 32.598899 0 0 1-46.098789 46.098789L673.622899 430.72822a32.598899 32.598899 0 0 1 0-46.098789M514.461358 466.56822a32.598899 32.598899 0 0 1-32.598899 32.598899H315.279266a32.598899 32.598899 0 1 1 0-65.197798h166.564404a32.598899 32.598899 0 0 1 32.598899 32.598899M871.452183 698.790752a32.598899 32.598899 0 0 1-32.598899 32.598899H672.270092a32.598899 32.598899 0 1 1 0-65.197798h166.564403a32.598899 32.598899 0 0 1 32.598899 32.598899M871.452183 803.539376a32.598899 32.598899 0 0 1-32.598899 32.598899H672.270092a32.598899 32.598899 0 1 1 0-65.197798h166.564403a32.598899 32.598899 0 0 1 32.598899 32.598899" fill="#FFFFFF" p-id="17253"></path><path d="M149.954936 143.472734a11.310972 11.310972 0 0 1-11.310973-11.310973V106.439633a11.310972 11.310972 0 1 1 22.621945 0v25.722128c0 6.247339-5.073028 11.310972-11.310972 11.310973M149.954936 208.275963a11.310972 11.310972 0 0 1-11.310973-11.310972v-25.722129a11.310972 11.310972 0 1 1 22.621945 0v25.722129c0 6.247339-5.073028 11.310972-11.310972 11.310972M141.725358 151.702312c0 6.247339-5.073028 11.310972-11.310973 11.310972h-25.722128a11.310972 11.310972 0 1 1 0-22.621945h25.722128c6.247339 0 11.310972 5.063633 11.310973 11.310973M206.528587 151.702312c0 6.247339-5.063633 11.310972-11.310972 11.310972h-25.722129a11.310972 11.310972 0 1 1 0-22.621945h25.722129c6.247339 0 11.310972 5.063633 11.310972 11.310973" fill="#7BD721" p-id="17254"></path><path d="M237.051303 273.68044a15.256661 15.256661 0 1 1-30.513321 0 15.256661 15.256661 0 0 1 30.513321 0" fill="#5C3290" p-id="17255"></path></svg>